<?xml version="1.0" encoding="UTF-8" standalone="no"?>
<svg
   xmlns:dc="http://purl.org/dc/elements/1.1/"
   xmlns:cc="http://creativecommons.org/ns#"
   xmlns:rdf="http://www.w3.org/1999/02/22-rdf-syntax-ns#"
   xmlns:svg="http://www.w3.org/2000/svg"
   xmlns="http://www.w3.org/2000/svg"
   xmlns:sodipodi="http://sodipodi.sourceforge.net/DTD/sodipodi-0.dtd"
   xmlns:inkscape="http://www.inkscape.org/namespaces/inkscape"
   version="1.1"
   id="logo"
   x="0px"
   y="0px"
   viewBox="0 0 210 104"
   style="enable-background:new 0 0 210 104;"
   xml:space="preserve"
   sodipodi:docname="logo.svg"
   inkscape:version="0.92.5 (2060ec1f9f, 2020-04-08)"><metadata
   id="metadata40"><rdf:RDF><cc:Work
       rdf:about=""><dc:format>image/svg+xml</dc:format><dc:type
         rdf:resource="http://purl.org/dc/dcmitype/StillImage" /></cc:Work></rdf:RDF></metadata><defs
   id="defs38" /><sodipodi:namedview
   pagecolor="#ffffff"
   bordercolor="#666666"
   borderopacity="1"
   objecttolerance="10"
   gridtolerance="10"
   guidetolerance="10"
   inkscape:pageopacity="0"
   inkscape:pageshadow="2"
   inkscape:window-width="1920"
   inkscape:window-height="1043"
   id="namedview36"
   showgrid="false"
   inkscape:zoom="1.8238095"
   inkscape:cx="105"
   inkscape:cy="52"
   inkscape:window-x="0"
   inkscape:window-y="0"
   inkscape:window-maximized="1"
   inkscape:current-layer="text_1_" />
<style
   type="text/css"
   id="style2">
	.st0{fill:#FFFFFF;}
	.st1{fill:#BA2726;}
</style>
<path
   id="big-gear"
   class="st0"
   d="M135.1,51.4c0.4-1.5,2-2.4,3.5-2l1.6,0.4c0.3-1.7,0.5-3.4,0.7-5.2h-1.7c-1.6,0-2.9-1.2-2.9-2.8  s1.3-2.8,2.9-2.8h1.6c-0.1-1.8-0.4-3.5-0.7-5.2l-1.6,0.4c-1.5,0.4-3.1-0.5-3.5-2s0.5-3.1,2-3.5l1.6-0.4c-0.6-1.7-1.3-3.3-2-4.8  l-1.4,0.8c-1.4,0.8-3.1,0.3-3.9-1.1c-0.8-1.4-0.3-3.1,1.1-3.9l1.4-0.8c-1-1.4-2-2.8-3.2-4.1l-1.1,1.1c-1.1,1.1-2.9,1.1-4.1,0  c-1.1-1.1-1.1-2.9,0-4.1l1.1-1.1C125.2,9,123.8,8,122.4,7l-0.8,1.4c-0.8,1.4-2.5,1.8-3.9,1l0,0c-1.4-0.8-1.8-2.5-1.1-3.9l0.8-1.4  c-1.6-0.8-3.2-1.4-4.8-2l-0.4,1.5c-0.4,1.5-2,2.4-3.5,2s-2.4-2-2-3.5l0.5-1.5c-1.7-0.3-3.3-0.6-5.1-0.7v1.5c0,1.6-1.4,2.9-3,2.9  s-3-1.3-3-2.9V0c-1.8,0.1-3.5,0.3-5.1,0.7l0.4,1.5c0.4,1.5-0.5,3.1-2,3.5l0,0c-1.5,0.4-3.1-0.5-3.5-2l-0.4-1.5  c-1.7,0.6-3.3,1.2-4.8,2l0.8,1.4c0.8,1.4,0.3,3.1-1.1,3.9l0,0c-1.4,0.8-3.1,0.3-3.9-1L75.6,7c-1.5,1-2.8,2-4.2,3.2l1.1,1.1  c1.1,1.1,1.1,2.9,0,4.1l0,0c-1.1,1.1-2.9,1.1-4.1,0l-1.1-1.1c-1.1,1.3-2.2,2.7-3.2,4.1l1.4,0.8c1.4,0.8,1.8,2.5,1.1,3.9l0,0  c-0.8,1.4-2.5,1.8-3.9,1l-1.4-0.8c-0.8,1.6-1.4,3.2-2,4.8l1.6,0.4c1.5,0.4,2.4,2,2,3.5c-0.4,1.5-2,2.4-3.5,2l-1.6-0.4  c-0.3,1.7-0.6,3.5-0.7,5.2h1.7c1.6,0,2.9,1.2,2.9,2.8s-1.3,2.8-2.9,2.8H57c0.1,1.8,0.3,3.5,0.7,5.2l1.7-0.4c1.5-0.4,3.1,0.5,3.5,2  s-0.5,3.1-2,3.5l-1.7,0.5c0.6,1.7,1.2,3.3,2,4.9l1.5-0.9c1.4-0.8,3.1-0.3,3.9,1.1c0.8,1.4,0.3,3.1-1.1,3.9L64,65.1  c1,1.5,2.1,2.9,3.2,4.2l1.3-1.3c1.1-1.1,2.9-1.1,4.1,0c1.1,1.1,1.1,2.9,0,4.1l-1.3,1.3c1.3,1.2,2.7,2.2,4.2,3.2l0.9-1.6  c0.8-1.4,2.5-1.8,3.9-1.1l0,0c1.4,0.8,1.8,2.5,1.1,3.9l-0.9,1.6c1.6,0.8,3.2,1.5,4.9,2l0.5-1.7c0.4-1.5,2-2.4,3.5-2s2.4,2,2,3.5  l-0.5,1.7c1.7,0.3,3.4,0.6,5.2,0.7V82c0-1.6,1.4-2.9,3-2.9s3,1.3,3,2.9v1.8c1.8-0.1,3.5-0.4,5.2-0.7l-0.5-1.7  c-0.4-1.5,0.5-3.1,2-3.5l0,0c1.5-0.4,3.1,0.5,3.5,2l0.5,1.7c1.7-0.6,3.3-1.3,4.9-2l-0.9-1.5c-0.8-1.4-0.3-3.1,1.1-3.9l0,0  c1.4-0.8,3.1-0.3,3.9,1.1l0.9,1.5c1.5-1,2.9-2.1,4.2-3.2l-1.2-1.2c-1.1-1.1-1.1-2.9,0-4.1l0,0c1.1-1.1,2.9-1.1,4.1,0l1.2,1.2  c1.2-1.3,2.2-2.7,3.2-4.2l-1.5-0.9c-1.4-0.8-1.8-2.5-1.1-3.9l0,0c0.8-1.4,2.5-1.8,3.9-1l1.5,0.9c0.8-1.6,1.4-3.2,2-4.9l-1.6-0.4  C135.6,54.5,134.7,52.9,135.1,51.4L135.1,51.4z M66.6,43.7c-1.1,0-2-0.9-2-2s0.9-2,2-2s2,0.9,2,2S67.7,43.7,66.6,43.7z M120.5,17.3  c0.8-0.8,2.1-0.8,2.9,0s0.8,2.1,0,2.8c-0.8,0.8-2.1,0.8-2.9,0C119.7,19.4,119.7,18.1,120.5,17.3z M99,7.2c1.1,0,2,0.9,2,2  s-0.9,2-2,2s-2-0.9-2-2S97.9,7.2,99,7.2z M74.6,17.3c0.8-0.8,2.1-0.8,2.9,0s0.8,2.1,0,2.8c-0.8,0.8-2.1,0.8-2.9,0  C73.8,19.4,73.8,18.1,74.6,17.3z M77.5,66c-0.8,0.8-2.1,0.8-2.9,0s-0.8-2.1,0-2.8c0.8-0.8,2.1-0.8,2.9,0S78.3,65.2,77.5,66z   M99,76.1c-1.1,0-2-0.9-2-2s0.9-2,2-2s2,0.9,2,2S100.1,76.1,99,76.1z M123.4,66c-0.8,0.8-2.1,0.8-2.9,0s-0.8-2.1,0-2.8  c0.8-0.8,2.1-0.8,2.9,0C124.2,63.9,124.2,65.2,123.4,66z M99,70c-15.5,0-28.1-12.6-28.1-28.1S83.5,13.8,99,13.8s28.1,12.6,28.1,28.1  S114.5,70,99,70z M131.4,43.7c-1.1,0-2-0.9-2-2s0.9-2,2-2s2,0.9,2,2C133.5,42.8,132.6,43.7,131.4,43.7z" />
<path
   id="small-gear"
   class="st1"
   d="M119.7,47.4c0.2-0.9,1.1-1.4,2-1.2l0.9,0.2c0.2-1,0.3-1.8,0.4-3h-1c-0.9,0-1.6-0.7-1.6-1.6  c0-0.9,0.7-1.6,1.6-1.6h0.9c-0.1-0.9-0.2-2-0.4-3l-0.9,0.2c-0.9,0.2-1.8-0.3-2-1.2s0.3-1.8,1.2-2l0.9-0.2c-0.3-1-0.7-1.9-1.2-2.8  l-0.8,0.5c-0.8,0.5-1.8,0.2-2.3-0.6c-0.5-0.8-0.2-1.8,0.6-2.2l0.8-0.5c-0.6-0.8-1.2-1.6-1.8-2.4l-0.6,0.6c-0.6,0.6-1.7,0.6-2.3,0  c-0.6-0.6-0.6-1.7,0-2.3l0.6-0.6c-0.8-0.7-1.6-1.3-2.4-1.8l-0.4,0.8c-0.5,0.8-1.5,1.1-2.3,0.6l0,0c-0.8-0.5-1.1-1.5-0.6-2.2l0.4-0.8  c-0.9-0.4-1.8-0.8-2.8-1.1l-0.2,0.9c-0.2,0.9-1.1,1.4-2,1.2c-0.9-0.2-1.4-1.1-1.2-2l0.2-0.9c-1-0.2-1.9-0.3-3-0.4v0.9  c0,0.9-0.7,1.6-1.6,1.6s-1.6-0.7-1.6-1.6V18c-0.9,0.1-2,0.2-2.9,0.4l0.3,0.9c0.2,0.9-0.3,1.8-1.2,2l0,0c-0.9,0.2-1.8-0.3-2-1.2  l-0.2-0.9c-1,0.3-1.9,0.7-2.8,1.1l0.5,0.8c0.5,0.8,0.2,1.8-0.6,2.2l0,0c-0.8,0.5-1.8,0.2-2.3-0.6l-0.5-0.8c-0.8,0.6-1.6,1.2-2.4,1.8  l0.6,0.6c0.6,0.6,0.6,1.7,0,2.3l0,0c-0.6,0.6-1.7,0.6-2.3,0L80.8,26c-0.7,0.8-1.3,1.5-1.8,2.4l0.8,0.5c0.8,0.5,1.1,1.5,0.6,2.2l0,0  c-0.5,0.8-1.5,1.1-2.3,0.6l-0.8-0.5c-0.4,0.9-0.8,1.8-1.2,2.8l0.9,0.2c0.9,0.2,1.4,1.1,1.2,2c-0.2,0.9-1.1,1.4-2,1.2l-0.9-0.3  c-0.2,1-0.3,2.1-0.4,3h1c0.9,0,1.6,0.7,1.6,1.6s-0.7,1.6-1.6,1.6h-1c0.1,1.2,0.2,2,0.4,3l1-0.2c0.9-0.2,1.8,0.3,2,1.2  s-0.3,1.8-1.2,2l-1,0.3c0.3,1,0.7,1.9,1.2,2.8l0.9-0.5c0.8-0.5,1.8-0.2,2.3,0.6s0.2,1.8-0.6,2.2L79,55.2c0.6,0.8,1.2,1.6,1.8,2.4  l0.7-0.7c0.6-0.6,1.7-0.6,2.3,0c0.6,0.6,0.6,1.7,0,2.3L83.1,60c0.8,0.7,1.6,1.3,2.4,1.8L86,61c0.5-0.8,1.5-1.1,2.3-0.6l0,0  c0.8,0.5,1.1,1.5,0.6,2.2l-0.5,0.9c0.9,0.4,1.8,0.8,2.8,1.2l0.3-1c0.2-0.9,1.1-1.4,2-1.2s1.4,1.1,1.2,2l-0.3,1  c1,0.2,2.1,0.3,2.9,0.4v-1c0-0.9,0.9-1.6,1.8-1.6s1.8,0.7,1.8,1.6v1c0.9-0.1,2-0.2,2.9-0.4l-0.3-1c-0.2-0.9,0.3-1.8,1.1-2l0,0  c0.9-0.2,1.8,0.3,2,1.2l0.3,1c1-0.3,1.9-0.7,2.8-1.2l-0.5-0.9c-0.5-0.8-0.2-1.8,0.6-2.2l0,0c0.8-0.5,1.8-0.2,2.3,0.6l0.5,0.9  c0.8-0.6,1.6-1.2,2.4-1.9l-0.7-0.7c-0.6-0.6-0.6-1.7,0-2.3l0,0c0.6-0.6,1.7-0.6,2.3,0l0.7,0.7c0.7-0.8,1.3-1.6,1.8-2.4l-0.9-0.5  c-0.8-0.5-1.1-1.5-0.6-2.2l0,0c0.5-0.8,1.5-1.1,2.3-0.6l0.9,0.5c0.4-0.9,0.8-1.8,1.1-2.8l-0.9-0.3C120,49.1,119.5,48.2,119.7,47.4  L119.7,47.4z M80.4,42.9c-0.6,0-1.2-0.5-1.2-1.2c0-0.6,0.5-1.2,1.2-1.2s1.2,0.5,1.2,1.2C81.5,42.4,81,42.9,80.4,42.9z M111.3,27.8  c0.5-0.5,1.2-0.5,1.6,0c0.5,0.5,0.5,1.2,0,1.6c-0.5,0.5-1.2,0.5-1.6,0C110.9,29,110.9,28.2,111.3,27.8z M99,22  c0.6,0,1.2,0.5,1.2,1.2c0,0.6-0.5,1.2-1.2,1.2c-0.6,0-1.2-0.5-1.2-1.2S98.3,22,99,22z M85,27.8c0.5-0.5,1.2-0.5,1.6,0  c0.5,0.5,0.5,1.2,0,1.6c-0.5,0.5-1.2,0.5-1.6,0C84.5,29,84.5,28.2,85,27.8z M86.7,55.7c-0.5,0.5-1.2,0.5-1.6,0  c-0.5-0.5-0.5-1.2,0-1.6c0.5-0.5,1.2-0.5,1.6,0C87.1,54.6,87.1,55.3,86.7,55.7z M99,61.5c-0.6,0-1.2-0.5-1.2-1.2  c0-0.6,0.5-1.2,1.2-1.2c0.6,0,1.2,0.5,1.2,1.2S99.6,61.5,99,61.5z M113,55.7c-0.5,0.5-1.2,0.5-1.6,0c-0.5-0.5-0.5-1.2,0-1.6  c0.5-0.5,1.2-0.5,1.6,0C113.4,54.5,113.4,55.3,113,55.7z M99,58c-8.9,0-16.1-7.2-16.1-16.1S90.1,25.8,99,25.8s16.1,7.2,16.1,16.1  S107.9,58,99,58z M117.6,42.9c-0.6,0-1.2-0.5-1.2-1.2c0-0.6,0.5-1.2,1.2-1.2c0.6,0,1.2,0.5,1.2,1.2  C118.8,42.4,118.3,42.9,117.6,42.9z" />
<g
   id="text_1_">
	
	<g
   id="g32">
		<path
   class="st1"
   d="M130.8,101.3l-2.6-2.6v-5.2h5.2v2.6h13v-5.2h-15.7l-2.6-1.9V77.8l2.6-2.7h18.3l2.6,2.7V83h-5.2v-2.6h-13v5.2    h15.7l2.6,2.6v10.5l-2.6,2.6H130.8z"
   id="path26" />
		<path
   class="st1"
   d="M155.4,101.3V75.1h5.2l9.1,12.7l9.3-12.7h5v26.1h-5.2V83.7l-6.8,10h-4.4l-7-10v17.6H155.4z"
   id="path28" />
		<path
   class="st1"
   d="M187.8,101.3V75.1H210v5.2h-17v5.3h15.7v5.2H193v10.4H187.8z"
   id="path30" />
	</g>
</g>
</svg>